<svg width="100" height="50" viewBox="0 0 91 50" fill="none" xmlns="http://www.w3.org/2000/svg" style="width: 100px;"><g clip-path="url(#clip0_166_8551)"><path d="M52.0536 50H66.8036L56.6429 31.3536C59.2357 30.1071 61.2786 28.3464 62.7571 26.05C64.3464 23.5893 65.1393 20.5714 65.1393 16.9929C65.1393 13.4143 64.3679 10.4 62.8179 7.86071C61.275 5.32143 59.1071 3.375 56.3286 2.025C53.5393 0.675 50.2964 0 46.5786 0H25V50H38.575V33.4964H43.275L52.0536 50ZM38.575 10.8393H43.3571C44.9571 10.8393 46.3179 11.0571 47.4464 11.4893C48.5821 11.9214 49.45 12.5857 50.0607 13.4893C50.6714 14.3929 50.9786 15.5607 50.9786 16.9929C50.9786 18.425 50.6714 19.5571 50.0607 20.4321C49.45 21.3107 48.5821 21.95 47.4464 22.35C46.3179 22.75 44.9571 22.95 43.3571 22.95H38.575V10.8393V10.8393Z" fill="#1ED599"></path></g><defs><clipPath id="clip0_166_8551"><rect width="90.0143" height="50" fill="white"></rect></clipPath></defs></svg>